<?xml version="1.0" encoding="UTF-8"?>
<svg width="19px" height="19px" viewBox="0 0 19 19" version="1.1" xmlns="http://www.w3.org/2000/svg" xmlns:xlink="http://www.w3.org/1999/xlink">
    <!-- Generator: Sketch 50 (54983) - http://www.bohemiancoding.com/sketch -->
    <title>Fill 1</title>
    <desc>Created with Sketch.</desc>
    <defs></defs>
    <g id="Page-1" stroke="none" stroke-width="1" fill="none" fill-rule="evenodd">
        <g id="Header-2" transform="translate(-330.000000, -55.000000)" fill="#282828">
            <path d="M337.551746,68.5956624 C334.195375,68.5740248 331.48547,65.8436414 331.507432,62.5096294 C331.529191,59.1756174 334.274887,56.4771849 337.631258,56.4990247 C340.983764,56.5208646 343.697534,59.2546857 343.675572,62.5886977 C343.653609,65.9227097 340.904456,68.6175022 337.551746,68.5956624 M348.782827,72.7312771 L343.430936,67.3726319 C344.512986,66.0782174 345.170839,64.4153569 345.182837,62.5984043 C345.21029,58.4310409 341.831957,55.027465 337.641019,55.0001652 C333.446623,54.9728654 330.027619,58.3323572 330.000166,62.4999228 C329.972713,66.6672862 333.347386,70.0708621 337.541985,70.0981619 C339.368924,70.1100929 341.045788,69.4811867 342.361493,68.4221571 L347.713587,73.7771624 C348.005808,74.0715957 348.480031,74.074629 348.775913,73.7840379 C349.071997,73.4970868 349.075048,73.0218682 348.782827,72.7312771" id="Fill-1"></path>
        </g>
    </g>
</svg>