<?xml version="1.0" encoding="UTF-8"?>
<svg width="17px" height="20px" viewBox="0 0 17 20" version="1.1" xmlns="http://www.w3.org/2000/svg" xmlns:xlink="http://www.w3.org/1999/xlink">
    <!-- Generator: Sketch 49.3 (51167) - http://www.bohemiancoding.com/sketch -->
    <title>Page 1</title>
    <desc>Created with Sketch.</desc>
    <defs>
        <polygon id="path-1" points="0 1.12646002e-05 16.9999924 1.12646002e-05 16.9999924 7.96031746 0 7.96031746"></polygon>
    </defs>
    <g id="Page-1" stroke="none" stroke-width="1" fill="none" fill-rule="evenodd">
        <g id="Header-#4" transform="translate(-1082.000000, -25.000000)">
            <g id="Page-1" transform="translate(1082.000000, 25.000000)">
                <path d="M8.63492063,0 C5.80790159,0 3.50793651,2.29996508 3.50793651,5.12698413 C3.50793651,7.95400317 5.80790159,10.2539683 8.63492063,10.2539683 C11.4619397,10.2539683 13.7619048,7.95400317 13.7619048,5.12698413 C13.7619048,2.29996508 11.4619397,0 8.63492063,0" id="Fill-1" fill="#666666"></path>
                <g id="Group-5" transform="translate(0.000000, 11.468254)">
                    <mask id="mask-2" fill="white">
                        <use xlink:href="#path-1"></use>
                    </mask>
                    <g id="Clip-4"></g>
                    <path d="M9.63332578,1.12646002e-05 L7.36665911,1.12646002e-05 C5.40191244,1.12646002e-05 3.55087689,0.776029571 2.15461022,2.18515596 C0.765181333,3.58737339 -7.55555556e-06,5.43829739 -7.55555556e-06,7.39709872 C-7.55555556e-06,7.70815188 0.253708,7.96032872 0.566659111,7.96032872 L16.4333258,7.96032872 C16.7462769,7.96032872 16.9999924,7.70815188 16.9999924,7.39709872 C16.9999924,5.43829739 16.2348036,3.58737339 14.8453747,2.18515596 C13.449108,0.776029571 11.5981102,1.12646002e-05 9.63332578,1.12646002e-05 Z" id="Fill-3" fill="#666666" mask="url(#mask-2)"></path>
                </g>
            </g>
        </g>
    </g>
</svg>