<?xml version="1.0" encoding="UTF-8"?>
<svg width="21px" height="11px" viewBox="0 0 21 11" version="1.1" xmlns="http://www.w3.org/2000/svg" xmlns:xlink="http://www.w3.org/1999/xlink">
    <!-- Generator: Sketch 50 (54983) - http://www.bohemiancoding.com/sketch -->
    <title>Page 1</title>
    <desc>Created with Sketch.</desc>
    <defs>
        <polygon id="path-1" points="8.18713451e-06 0.0355337079 20.9591053 0.0355337079 20.9591053 11 8.18713451e-06 11"></polygon>
        <polygon id="path-3" points="0 11 21 11 21 0 0 0"></polygon>
    </defs>
    <g id="Page-1" stroke="none" stroke-width="1" fill="none" fill-rule="evenodd">
        <g id="Tob-bar-1" transform="translate(-332.000000, -11.000000)">
            <g id="Page-1" transform="translate(332.000000, 11.000000)">
                <g id="Group-3">
                    <mask id="mask-2" fill="white">
                        <use xlink:href="#path-1"></use>
                    </mask>
                    <g id="Clip-2"></g>
                    <path d="M20.0444468,7.04982584 L18.970745,7.04982584 L18.970745,3.98564607 L20.0444468,3.98564607 L20.0450608,7.04970225 C20.0449789,7.04974345 20.0448152,7.04982584 20.0444468,7.04982584 M17.5988269,10.0794401 L1.37196725,10.0794813 C1.11980351,10.0794401 0.914633918,9.87295318 0.914633918,9.61917041 L0.914633918,1.4162191 C0.914633918,1.16247753 1.11980351,0.955949438 1.37196725,0.955949438 L17.598786,0.955990637 C17.8509497,0.955990637 18.0561193,1.16251873 18.0561193,1.4162603 L18.0561193,3.5254588 L18.0561193,7.5101367 L18.0561193,9.61925281 L18.0561602,9.61925281 C18.0561193,9.87295318 17.8509906,10.0794401 17.5988269,10.0794401 M20.0444468,3.06514794 L18.970745,3.06514794 L18.970745,1.4162603 C18.970745,0.654911985 18.3552363,0.0355337079 17.598786,0.0355337079 L1.37196725,0.0355337079 C0.615476023,0.0355337079 8.18713451e-06,0.654911985 8.18713451e-06,1.4162191 L8.18713451e-06,9.61921161 C8.18713451e-06,10.3806011 0.615476023,11.0000206 1.37196725,11.0000206 L17.5988269,11.0000206 C18.3553181,11.0000206 18.970745,10.3806011 18.970745,9.61921161 L18.970745,7.97036517 L20.0444877,7.97036517 C20.5488152,7.97036517 20.9591135,7.55739139 20.9591135,7.04982584 L20.9591135,3.98568727 C20.9590725,3.47808052 20.5486924,3.06514794 20.0444468,3.06514794" id="Fill-1" fill="#282828" mask="url(#mask-2)"></path>
                </g>
                <mask id="mask-4" fill="white">
                    <use xlink:href="#path-3"></use>
                </mask>
                <g id="Clip-5"></g>
                <polygon id="Fill-4" fill="#282828" mask="url(#mask-4)" points="1.75 9.16666667 13.125 9.16666667 13.125 1.83333333 1.75 1.83333333"></polygon>
            </g>
        </g>
    </g>
</svg>