<?xml version="1.0" encoding="UTF-8"?>
<svg width="30px" height="22px" viewBox="0 0 30 22" version="1.1" xmlns="http://www.w3.org/2000/svg" xmlns:xlink="http://www.w3.org/1999/xlink">
    <!-- Generator: Sketch 50 (54983) - http://www.bohemiancoding.com/sketch -->
    <title>Page 1 Copy 5</title>
    <desc>Created with Sketch.</desc>
    <defs></defs>
    <g id="Page-1" stroke="none" stroke-width="1" fill="none" fill-rule="evenodd">
        <g id="Elementos-formulario" transform="translate(-275.000000, -874.000000)" fill="#CBCBCB">
            <g id="Page-1-Copy-5" transform="translate(275.000000, 874.000000)">
                <path d="M1.52542373,20.4651163 L28.4745763,20.4651163 L28.4745763,1.53488372 L1.52542373,1.53488372 L1.52542373,20.4651163 Z M29.2372881,0 L0.762711864,0 C0.34220339,0 0,0.344325581 0,0.76744186 L0,21.2325581 C0,21.6556744 0.34220339,22 0.762711864,22 L29.2372881,22 C29.6577966,22 30,21.6556744 30,21.2325581 L30,0.76744186 C30,0.344325581 29.6577966,0 29.2372881,0 Z" id="Fill-1"></path>
                <path d="M8.33308238,5.2094724 C9.10801939,5.2094724 9.73840857,5.8330608 9.73840857,6.59975156 C9.73840857,7.3669392 9.10801939,7.9905276 8.33308238,7.9905276 C7.55864727,7.9905276 6.9282581,7.3669392 6.9282581,6.60024844 C6.9282581,5.8330608 7.55864727,5.2094724 8.33308238,5.2094724 M8.33308238,9.35 C9.86538983,9.35 11.1111111,8.11673593 11.1111111,6.60024844 C11.1111111,5.08425784 9.86538983,3.85 8.33308238,3.85 C6.80127684,3.85 5.55555556,5.08376095 5.55555556,6.59975156 C5.55555556,8.11623905 6.80127684,9.35 8.33308238,9.35" id="Fill-3"></path>
                <path d="M3.55954499,19.8 C3.74912546,19.8 3.93245603,19.7329503 4.0751622,19.6114544 L12.3880576,12.5273811 L17.5812083,17.5535845 C17.8858912,17.847998 18.3811963,17.8474939 18.6858792,17.5535845 C18.9900412,17.2581627 18.9900412,16.7787325 18.6858792,16.484319 L16.3577893,14.2308456 L20.796264,9.52678298 L26.4685742,14.5605484 C26.7862777,14.8423586 27.2815827,14.8206809 27.5727242,14.5136641 C27.7138679,14.3644408 27.7867834,14.1708538 27.7768878,13.9692007 C27.7675129,13.7670435 27.6779309,13.5810185 27.5242874,13.4454068 L21.2738609,7.89944249 C21.124384,7.76735971 20.9358452,7.688715 20.7113694,7.70131832 C20.5030392,7.71089684 20.3103338,7.79811181 20.1697109,7.9473351 L15.2520768,13.1600677 L12.974507,10.954991 C12.6838864,10.6751974 12.2146227,10.6595693 11.906294,10.9227265 L3.04340695,18.4761474 C2.88663848,18.6097426 2.79236907,18.7942552 2.77934843,18.9954041 C2.76632779,19.1975614 2.83455593,19.3916525 2.97309551,19.5439006 C3.12153077,19.7062313 3.33506921,19.8 3.55954499,19.8" id="Fill-4"></path>
            </g>
        </g>
    </g>
</svg>