<?xml version="1.0" encoding="UTF-8"?>
<svg width="14px" height="11px" viewBox="0 0 14 11" version="1.1" xmlns="http://www.w3.org/2000/svg" xmlns:xlink="http://www.w3.org/1999/xlink">
    <!-- Generator: Sketch 50 (54983) - http://www.bohemiancoding.com/sketch -->
    <title>Page 1</title>
    <desc>Created with Sketch.</desc>
    <defs>
        <polygon id="path-1" points="0.021598639 0.00592413013 2.03198003 0.00592413013 2.03198003 2.06930693 0.021598639 2.06930693"></polygon>
        <polygon id="path-3" points="1.14285714e-05 0.00445544554 13.97999 0.00445544554 13.97999 4.24454851 1.14285714e-05 4.24454851"></polygon>
    </defs>
    <g id="Page-1" stroke="none" stroke-width="1" fill="none" fill-rule="evenodd">
        <g id="Tob-bar-1" transform="translate(-58.000000, -11.000000)">
            <g id="Page-1" transform="translate(58.000000, 11.000000)">
                <path d="M2.26321078,5.08867786 C1.97218817,5.39309885 1.97218817,5.88852907 2.26321078,6.19596442 C2.5542334,6.50035556 3.02785845,6.50035556 3.32173423,6.19596442 C5.33606725,4.08886385 8.61437998,4.08886385 10.6286845,6.19596442 C10.7741958,6.34814507 10.9653577,6.42574257 11.1565196,6.42574257 C11.3476815,6.42574257 11.538872,6.34814507 11.6843548,6.19596442 C11.9753774,5.89151359 11.9753774,5.39608337 11.6843548,5.08867786 C9.0879765,2.36978065 4.85958904,2.36978065 2.26321078,5.08867786" id="Fill-1" fill="#282828"></path>
                <path d="M4.30836026,7.15567188 C4.01706344,7.46061266 4.01706344,7.95691872 4.30836026,8.26484911 C4.59965708,8.56978989 5.07372837,8.56978989 5.36788105,8.26484911 C6.26747417,7.32010073 7.73538168,7.32010073 8.6349748,8.26484911 C8.78062322,8.41728961 8.97196524,8.4950495 9.16330727,8.4950495 C9.3546493,8.4950495 9.54599133,8.41728961 9.69163974,8.26484911 C9.98293656,7.95987844 9.98293656,7.46363217 9.69163974,7.15869139 C8.20945298,5.60107183 5.79340287,5.60107183 4.30836026,7.15567188" id="Fill-3" fill="#282828"></path>
                <g id="Group-7" transform="translate(5.977528, 8.930693)">
                    <mask id="mask-2" fill="white">
                        <use xlink:href="#path-1"></use>
                    </mask>
                    <g id="Clip-6"></g>
                    <path d="M1.02678933,0.00592413013 C1.58194838,0.00592413013 2.03198003,0.467822999 2.03198003,1.03759188 C2.03198003,1.60741989 1.58194838,2.06931876 1.02678933,2.06931876 C0.471659092,2.06931876 0.021598639,1.60741989 0.021598639,1.03759188 C0.021598639,0.467822999 0.471659092,0.00592413013 1.02678933,0.00592413013" id="Fill-5" fill="#282828" mask="url(#mask-2)"></path>
                </g>
                <g id="Group-10">
                    <mask id="mask-4" fill="white">
                        <use xlink:href="#path-3"></use>
                    </mask>
                    <g id="Clip-9"></g>
                    <path d="M13.76144,2.91385545 C10.0271543,-0.965352475 3.95286857,-0.965352475 0.218582857,2.91385545 C-0.0728457143,3.21682574 -0.0728457143,3.70989505 0.218582857,4.01583564 C0.510011429,4.31880594 0.984297143,4.31880594 1.27858286,4.01583564 C4.42715429,0.73959802 9.55284,0.73959802 12.7042971,4.01583564 C12.8500114,4.16732079 13.04144,4.24454851 13.2328686,4.24454851 C13.4242686,4.24454851 13.6156971,4.16732079 13.76144,4.01583564 C14.05284,3.71286535 14.05284,3.21979604 13.76144,2.91385545" id="Fill-8" fill="#282828" mask="url(#mask-4)"></path>
                </g>
            </g>
        </g>
    </g>
</svg>