<?xml version="1.0" encoding="UTF-8"?>
<svg width="14px" height="15px" viewBox="0 0 14 15" version="1.1" xmlns="http://www.w3.org/2000/svg" xmlns:xlink="http://www.w3.org/1999/xlink">
    <title>chevron.up.chevron.down-big</title>
    <g id="Page-1" stroke="none" stroke-width="1" fill="none" fill-rule="evenodd">
        <g id="NOU" transform="translate(-747.000000, -204.000000)" fill="#0075FF" fill-rule="nonzero">
            <g id="Group-Copy" transform="translate(747.000000, 204.000000)">
                <g id="chevron.up.chevron.down" transform="translate(1.000000, 0.000000)">
                    <path d="M5.9962633,0 C5.75853508,0 5.55048061,0.118374307 5.30522827,0.323554045 L0.289779884,4.63222978 C0.1114499,4.79007416 0,5.02684073 0,5.3188259 C0,5.85538905 0.408669359,6.25 0.876779228,6.25 C1.09225636,6.25 1.30773349,6.16317661 1.52321908,5.98162864 L6.00370288,2.14645911 L10.4767471,5.98162864 C10.6848016,6.16317661 10.9077352,6.25 11.1232292,6.25 C11.5913306,6.25 12,5.85538905 12,5.3188259 C12,5.02684073 11.8884909,4.79007416 11.7101948,4.63222978 L6.68729834,0.323554045 C6.44948557,0.118374307 6.2414311,0 5.9962633,0 Z M5.9962633,15 C6.2414311,15 6.44948557,14.8894735 6.68729834,14.6843126 L11.7101948,10.3756644 C11.8884909,10.2099196 12,9.973154 12,9.68907125 C12,9.14460925 11.5913306,8.75 11.1232292,8.75 C10.9077352,8.75 10.6848016,8.84472418 10.4767471,9.02618158 L6.00370288,12.8613884 L1.52321908,9.02618158 C1.30773349,8.84472418 1.09225636,8.75 0.876779228,8.75 C0.408669359,8.75 0,9.14460925 0,9.68907125 C0,9.973154 0.1114499,10.2099196 0.289779884,10.3756644 L5.30522827,14.6764114 C5.55048061,14.8894735 5.75853508,15 5.9962633,15 Z" id="Shape"></path>
                </g>
            </g>
        </g>
    </g>
</svg>