<?xml version="1.0" encoding="UTF-8"?>
<svg width="32px" height="29px" viewBox="0 0 32 29" version="1.1" xmlns="http://www.w3.org/2000/svg" xmlns:xlink="http://www.w3.org/1999/xlink">
    <!-- Generator: Sketch 50 (54983) - http://www.bohemiancoding.com/sketch -->
    <title>Page 1</title>
    <desc>Created with Sketch.</desc>
    <defs></defs>
    <g id="Page-1" stroke="none" stroke-width="1" fill="none" fill-rule="evenodd">
        <g id="Header-9" transform="translate(-90.000000, -88.000000)" fill="#B2B2B2">
            <g id="Page-1" transform="translate(90.000000, 88.000000)">
                <path d="M31.9701501,11.779875 C31.9473289,11.6320308 31.8682405,11.5019833 31.7476589,11.4137547 L16.3190695,0.114080887 C16.1212857,-0.0306819164 15.8556039,-0.0307448021 15.6578829,0.114080887 L0.22916778,11.4136918 C0.108586248,11.5019833 0.0294978389,11.6320937 0.00667662083,11.779875 C-0.0161445972,11.9275934 0.0199418468,12.0753748 0.108146169,12.1959895 C0.290653045,12.4450796 0.641647151,12.4991613 0.890417289,12.3170444 L15.9883819,1.25954329 L31.0863466,12.3169815 C31.1829752,12.3877907 31.2969556,12.4252077 31.4162798,12.4252077 C31.5944487,12.4252077 31.7635018,12.3394946 31.8684919,12.1959895 C31.9568849,12.0753748 31.9929713,11.9275934 31.9701501,11.779875" id="Fill-1"></path>
                <path d="M28.3891051,13.6044811 C28.3890421,13.3118787 28.1518716,13.07393 27.8603521,13.07393 C27.5688326,13.07393 27.3315991,13.3118155 27.3315991,13.6044179 L27.3315991,27.4525796 L19.9176589,27.4525796 L19.9176589,19.7482468 C19.9176589,17.5809925 18.1602292,15.8177329 15.999937,15.8177329 C13.8398338,15.8177329 12.0823411,17.5809925 12.0823411,19.7482468 L12.0823411,27.4526428 L4.66833789,27.4526428 L4.66833789,13.6044811 C4.66833789,13.3118787 4.43110439,13.0739931 4.13958492,13.0739931 C3.84800248,13.0739931 3.61089494,13.3118787 3.61089494,13.6044811 L3.61089494,27.9831307 C3.61089494,28.2756699 3.84800248,28.5136187 4.13958492,28.5136187 L12.6110941,28.5136187 C12.885106,28.5136187 13.1163567,28.2988583 13.1374539,28.0247686 C13.1392173,28.0075827 13.139784,27.9960833 13.139784,27.9831307 L13.139784,19.74831 C13.139784,18.1660709 14.4228728,16.878772 15.999937,16.878772 C17.5770643,16.878772 18.860153,18.1660709 18.860153,19.74831 L18.860153,27.9831307 C18.860153,27.9951988 18.8607198,28.0057504 18.8617274,28.0152911 C18.8832025,28.2958886 19.1146421,28.5136187 19.3889059,28.5136187 L27.8603521,28.5136187 C28.1519345,28.5136187 28.3891051,28.2756699 28.3891051,27.9831307 L28.3891051,13.6044811 Z" id="Fill-4"></path>
            </g>
        </g>
    </g>
</svg>