<?xml version="1.0" encoding="UTF-8"?>
<svg width="5459px" height="1138px" viewBox="0 0 5459 1138" version="1.1" xmlns="http://www.w3.org/2000/svg" xmlns:xlink="http://www.w3.org/1999/xlink">
    <title>Logo-Justinmind-2022 2</title>
    <defs>
        <linearGradient x1="28.6774333%" y1="14.6403883%" x2="62.0075234%" y2="70.6310651%" id="linearGradient-1">
            <stop stop-color="#C13ED1" offset="0%"></stop>
            <stop stop-color="#9835FF" offset="100%"></stop>
        </linearGradient>
    </defs>
    <g id="Page-1" stroke="none" stroke-width="1" fill="none" fill-rule="evenodd">
        <g id="Logo-Justinmind-2022-(SVG)" transform="translate(0.953668, 0.000000)">
            <g id="Logotype-Justinmind" transform="translate(1126.046332, 383.000000)" fill="#000000">
                <path d="M1257.94358,407.890001 C1247.17254,396.083917 1232.67237,385.642692 1214.84354,376.860172 C1197.17809,368.163878 1175.68933,360.284457 1150.94453,353.435203 C1131.79854,348.268482 1116.18428,343.546502 1104.53513,339.398602 C1093.14806,335.352811 1085.08963,332.043341 1080.57995,329.55982 C1075.86606,326.243543 1072.18004,322.557403 1069.62286,318.587627 C1067.14395,314.768746 1065.93797,310.460875 1065.93797,305.418953 C1065.93797,301.31757 1066.81381,297.687023 1068.61995,294.308346 C1070.4068,290.945552 1073.05815,287.956023 1076.49572,285.431659 C1079.96618,282.89368 1084.48607,281.004661 1089.92151,279.820195 C1095.66326,278.576733 1102.3841,277.945925 1109.89342,277.945925 C1119.81244,277.945925 1130.71168,280.109504 1142.28255,284.374262 C1154.05649,288.732053 1165.99267,294.442222 1177.76208,301.347068 C1189.43279,308.197456 1199.7296,316.047379 1208.3723,324.677869 L1211.30727,327.608401 L1283.36114,247.073797 L1280.52827,244.452997 C1266.18693,231.183348 1249.66165,219.626864 1231.40625,210.102351 C1213.19396,200.598261 1193.365,193.094374 1172.46959,187.79718 C1151.54696,182.510196 1129.17329,179.830398 1105.96915,179.830398 C1076.28924,179.830398 1048.30541,185.34883 1022.79482,196.237066 C997.184391,207.179761 976.203897,222.755941 960.438746,242.53221 C944.506821,262.516101 936.427975,286.051121 936.427975,312.482636 C936.427975,329.657391 939.296017,345.468422 944.954953,359.47666 C950.622965,373.525742 958.97069,386.114663 969.757611,396.889445 C981.506597,408.650147 996.777102,419.201424 1015.14482,428.249427 C1033.34123,437.221416 1055.12268,444.977171 1079.92648,451.304534 C1097.05417,455.467182 1111.18109,459.51978 1121.91583,463.354545 C1132.55753,467.155274 1139.96248,470.334271 1144.00701,472.851829 C1151.6865,477.375263 1155.41791,483.971513 1155.41791,493.017247 C1155.41791,497.561103 1154.51597,501.562646 1152.7416,504.905019 C1150.92525,508.304118 1148.27276,511.293646 1144.85448,513.79532 C1141.32616,516.385488 1137.10692,518.42994 1132.31361,519.870813 C1127.46925,521.324166 1121.77401,522.060487 1115.38672,522.060487 C1097.61235,522.060487 1078.53103,518.313082 1058.6703,510.923784 C1038.88104,503.575331 1020.86956,491.864548 1005.13844,476.115917 L1002.56764,473.541633 L919.940141,544.367927 L922.430391,547.342707 C941.5934,570.238977 967.457959,588.440496 999.307059,601.441257 C1031.03817,614.395502 1067.45254,620.962253 1107.53818,620.962253 C1141.43507,620.962253 1171.95566,614.903779 1198.25133,602.949069 C1224.66953,590.938766 1245.79184,574.137276 1261.03058,553.008629 C1276.36689,531.756316 1284.14395,507.083347 1284.14395,479.673853 C1284.14395,465.709862 1282.09503,452.483327 1278.05504,440.362973 C1273.97194,428.111012 1267.20231,417.184201 1257.94358,407.890001" id="Fill-1"></path>
                <polygon id="Fill-3" points="1489.00175 83.2823605 1354.78127 83.2823605 1354.78127 613.114146 1489.00175 613.114146 1489.00175 306.988711 1569.06185 306.988711 1569.06185 188.462704 1489.00175 188.462704"></polygon>
                <polygon id="Fill-5" points="1640.47778 613.113465 1774.69826 613.113465 1774.69826 188.462023 1640.47778 188.462023"></polygon>
                <polygon id="Fill-7" points="3146.70207 613.113465 3280.92255 613.113465 3280.92255 188.462023 3146.70207 188.462023"></polygon>
                <path d="M4163.51689,458.385461 C4156.01664,474.3905 4145.52696,486.921559 4132.33601,495.630333 C4119.18931,504.313012 4103.1462,508.716185 4084.65369,508.716185 C4066.67171,508.716185 4050.89635,504.314147 4037.75872,495.628064 C4024.57117,486.93177 4014.0815,474.400711 4006.57671,458.385461 C3999.0118,442.247681 3995.17602,423.00011 3995.17602,401.180524 C3995.17602,378.851527 3999.0118,359.341876 4006.57671,343.190481 C4014.0815,327.188846 4024.57117,314.657787 4037.75872,305.946744 C4050.91223,297.26293 4066.69099,292.858623 4084.65369,292.858623 C4103.12805,292.858623 4119.17116,297.26293 4132.33147,305.944475 C4145.52696,314.666864 4156.02118,327.200192 4163.51689,343.190481 C4171.0818,359.341876 4174.91871,378.851527 4174.91871,401.180524 C4174.91871,423.00011 4171.0818,442.247681 4163.51689,458.385461 L4163.51689,458.385461 Z M4171.78066,24.4125907 L4171.78066,223.810161 C4167.44569,219.931149 4162.8271,216.226857 4157.9748,212.744936 C4143.84902,202.624786 4127.64368,194.520725 4109.81826,188.657392 C4091.9554,182.799732 4073.1872,179.829491 4054.04348,179.829491 C4017.31939,179.829491 3983.97614,189.554818 3954.94516,208.73545 C3925.97091,227.87297 3902.93695,254.399787 3886.48429,287.584119 C3870.06452,320.676553 3861.74062,358.896 3861.74062,401.180524 C3861.74062,443.478663 3870.06452,481.69811 3886.48429,514.775794 C3902.93695,547.978279 3925.98566,574.252092 3954.9826,592.867721 C3983.99542,611.509444 4017.05958,620.96248 4053.25726,620.96248 C4072.88769,620.96248 4091.75572,618.26453 4109.33609,612.94351 C4126.86994,607.641777 4142.92893,600.216175 4157.06606,590.877728 C4164.74329,585.813115 4171.68422,580.268589 4177.79016,574.330376 L4180.69904,613.113692 L4306,613.113692 L4306,24.4125907 L4171.78066,24.4125907 Z" id="Fill-8"></path>
                <path d="M224.549031,35.2988987 L224.549031,430.12086 C224.549031,442.514639 222.046301,453.809044 217.114586,463.688669 C212.231655,473.453705 205.188617,481.242363 196.182876,486.835674 C187.177136,492.433523 176.652286,495.271022 164.894225,495.271022 C155.501616,495.271022 146.498145,493.521553 138.128864,490.067995 C129.755046,486.63259 121.195168,480.70005 112.685208,472.438287 C103.994861,464.007476 94.645364,452.709669 84.904461,438.852325 L82.1657538,434.95516 L1.28978857e-13,520.479497 L1.28880338,522.974363 C9.27461943,538.424609 19.3955833,552.595087 31.3726056,565.095513 C43.3416864,577.601612 56.9626137,588.391143 71.8519232,597.160048 C86.7764025,605.959586 103.362939,612.705596 121.154325,617.207474 C138.934366,621.71389 158.142755,624 178.238331,624 C204.22088,624 228.722893,619.688726 251.061395,611.183035 C273.406705,602.679614 293.116547,590.527493 309.646358,575.059095 C326.192052,559.575947 339.311526,540.644915 348.641737,518.789024 C357.96514,496.933132 362.692643,472.118345 362.692643,445.012909 L360.541612,35.3215896 L224.549031,35.2988987 Z" id="Fill-9"></path>
                <path d="M1710.60865,0 C1669.49287,0 1636.04185,33.4520849 1636.04185,74.5680271 C1636.04185,115.686238 1669.49287,149.137189 1710.60865,149.137189 C1751.72443,149.137189 1785.17432,115.686238 1785.17432,74.5680271 C1785.17432,33.4520849 1751.72443,0 1710.60865,0" id="Fill-10"></path>
                <path d="M3209.78616,0 C3168.67038,0 3135.21935,33.4520849 3135.21935,74.5680271 C3135.21935,115.686238 3168.67038,149.137189 3209.78616,149.137189 C3250.90194,149.137189 3284.35296,115.686238 3284.35296,74.5680271 C3284.35296,33.4520849 3250.90194,0 3209.78616,0" id="Fill-11"></path>
                <path d="M841.02907,193.166304 C829.492237,184.078592 810.617394,179.531332 784.410213,179.531332 C771.827362,179.531332 760.155523,180.359551 749.417386,182.008046 C738.666769,183.664483 730.409805,185.316382 724.646494,186.970549 L723.725272,440.426962 C723.725272,450.313394 721.975857,459.583769 718.526947,467.97487 C715.08144,476.347818 710.220064,483.706483 704.075558,489.850049 C697.953742,495.973193 690.625942,500.690634 682.2941,503.87417 C673.89986,507.087204 664.33821,508.716412 653.868952,508.716412 C632.887323,508.716412 617.048429,502.107682 605.440122,488.505612 C593.827278,474.921694 587.938036,455.577687 587.938036,431.009096 L587.938036,188.462477 L453.717559,188.462477 L453.717559,449.847096 C453.717559,485.336825 459.786053,516.139746 471.755134,541.401544 C483.807034,566.847138 501.346559,586.689211 523.891542,600.376373 C546.391145,614.037439 573.485513,620.961573 604.420198,620.961573 C627.87052,620.961573 650.316801,616.363258 671.13506,607.292564 C691.927225,598.23435 710.180356,585.519494 725.394136,569.506514 C726.671594,568.163212 727.926362,566.789277 729.15844,565.392651 L731.785965,613.113919 L857.945749,613.113919 L858.328079,245.644724 C858.328079,219.756656 852.554557,202.258555 841.02907,193.166304" id="Fill-12"></path>
                <path d="M1902.37522,607.327508 C1913.91205,616.415221 1932.7869,620.96248 1958.99408,620.96248 C1971.57693,620.96248 1983.24877,620.134262 1993.98691,618.485767 C2004.73752,616.82933 2012.99449,615.177431 2018.7578,613.523263 L2019.67902,360.066851 C2019.67902,350.180418 2021.42843,340.911179 2024.87734,332.518943 C2028.32285,324.145994 2033.18423,316.78733 2039.32873,310.643764 C2045.45055,304.52062 2052.77835,299.803178 2061.11019,296.619642 C2069.50443,293.406609 2079.06608,291.777401 2089.53534,291.777401 C2110.51583,291.777401 2126.35586,298.38613 2137.96303,311.988201 C2149.57701,325.572118 2155.46625,344.916125 2155.46625,369.484716 L2155.46625,612.031335 L2289.68673,612.031335 L2289.68673,350.646717 C2289.68673,315.156987 2283.61824,284.354067 2271.64916,259.092269 C2259.59726,233.646674 2242.05773,213.804601 2219.51275,200.11744 C2197.01315,186.456373 2169.91878,179.53224 2138.98409,179.53224 C2115.53377,179.53224 2093.08749,184.130554 2072.26923,193.201248 C2051.47707,202.259463 2033.2228,214.974318 2018.01015,230.987299 C2016.7327,232.330601 2015.47793,233.704536 2014.24585,235.101162 L2011.61833,187.379894 L1885.45854,187.379894 L1885.07621,554.849089 C1885.07621,580.737157 1890.84973,598.235258 1902.37522,607.327508" id="Fill-13"></path>
                <path d="M3409.58336,607.327508 C3421.12019,616.415221 3439.99503,620.96248 3466.20221,620.96248 C3478.78506,620.96248 3490.4569,620.134262 3501.19504,618.485767 C3511.94679,616.82933 3520.20262,615.177431 3525.96593,613.523263 L3526.88715,360.066851 C3526.88715,350.180418 3528.63657,340.911179 3532.08548,332.518943 C3535.53099,324.145994 3540.39236,316.78733 3546.53687,310.643764 C3552.65868,304.52062 3559.98648,299.803178 3568.31946,296.619642 C3576.71257,293.406609 3586.27422,291.777401 3596.74348,291.777401 C3617.7251,291.777401 3633.564,298.38613 3645.1723,311.988201 C3656.78628,325.572118 3662.67439,344.916125 3662.67439,369.484716 L3662.67439,612.031335 L3796.896,612.031335 L3796.896,350.646717 C3796.896,315.156987 3790.82637,284.354067 3778.85729,259.092269 C3766.80539,233.646674 3749.26587,213.804601 3726.72088,200.11744 C3704.22242,186.456373 3677.12691,179.53224 3646.19223,179.53224 C3622.74304,179.53224 3600.29676,184.130554 3579.47737,193.201248 C3558.6852,202.259463 3540.43207,214.974318 3525.21829,230.987299 C3523.94083,232.330601 3522.6872,233.704536 3521.45399,235.101162 L3518.82646,187.379894 L3392.66668,187.379894 L3392.28435,554.849089 C3392.28435,580.737157 3398.05787,598.235258 3409.58336,607.327508" id="Fill-14"></path>
                <path d="M3025.87834,258.630736 C3014.60698,232.603119 2997.4339,212.582922 2974.83673,199.124939 C2952.33259,185.737298 2923.929,178.94931 2890.41217,178.94931 C2877.07601,178.94931 2863.14082,180.842867 2848.98781,184.575523 C2834.85295,188.310448 2820.94726,193.980908 2807.64966,201.428067 C2794.31123,208.901321 2782.03243,217.944786 2771.1468,228.304324 C2764.34428,234.776909 2758.10107,241.868955 2752.5329,249.457932 C2747.02599,238.200968 2740.68635,228.423452 2733.64104,220.329602 C2720.97196,205.772244 2705.92042,195.106378 2688.91185,188.626986 C2672.05303,182.205457 2652.70282,178.94931 2631.39219,178.94931 C2617.48083,178.94931 2603.38114,180.982416 2589.48793,184.989632 C2575.6401,188.982099 2562.27557,194.651425 2549.771,201.842177 C2537.19949,209.060157 2525.67514,218.144466 2515.52014,228.83983 C2515.06293,229.322012 2514.60686,229.811001 2514.15079,230.306798 L2511.88517,186.799233 L2384.14615,186.799233 C2384.14615,186.799233 2384.20514,536.836131 2384.23578,536.8384 L2384.21649,554.849316 C2384.21649,580.737384 2390.00362,598.235484 2401.55407,607.327735 C2413.11586,616.414313 2432.03268,620.961573 2458.29659,620.961573 C2470.90667,620.961573 2482.60574,620.134489 2493.3677,618.484859 C2504.14101,616.829557 2512.41726,615.176523 2518.19191,613.52349 L2519.15284,360.270162 C2519.15284,350.389402 2520.88864,341.41174 2524.31486,333.583374 C2527.76037,325.705087 2532.63536,318.583543 2538.80256,312.417286 C2544.89941,306.319102 2552.34634,301.605064 2560.93912,298.406779 C2569.61925,295.185803 2579.06291,293.550923 2589.00916,293.550923 C2607.3281,293.550923 2621.11806,299.263361 2631.15508,311.011584 C2641.20797,322.790439 2646.30532,340.154663 2646.30532,362.625479 L2646.30532,611.44954 L2780.5258,611.44954 L2780.5258,360.270162 C2780.5258,350.395074 2782.26614,341.417413 2785.69122,333.583374 C2789.13333,325.706222 2794.00378,318.585812 2800.17438,312.417286 C2806.27691,306.319102 2813.7227,301.605064 2822.31207,298.406779 C2830.99221,295.185803 2840.70021,293.550923 2851.1672,293.550923 C2870.24966,293.550923 2884.68403,299.280379 2894.06643,310.577053 C2903.62014,322.098366 2908.46449,339.87443 2908.46449,363.40945 L2908.46449,611.44954 L3042.68384,611.44954 L3042.68384,353.989316 C3042.68384,316.473287 3037.03284,284.390599 3025.87834,258.630736" id="Fill-15"></path>
            </g>
            <g id="Imago-Justinmind" transform="translate(18.046332, 19.000000)">
                <path d="M426.053621,618.899834 C426.053621,736.382964 330.67809,831.622182 213.026811,831.622182 C95.3755314,831.622182 0,736.382964 0,618.899834 C0,501.416704 95.3755314,406.177486 213.026811,406.177486 C330.67809,406.177486 426.053621,501.416704 426.053621,618.899834" id="Fill-17" fill="#FF6575"></path>
                <path d="M426.053621,881.288195 C426.053621,998.771325 330.67809,1094.01054 213.026811,1094.01054 C95.3755314,1094.01054 0,998.771325 0,881.288195 C0,763.805065 95.3755314,668.565847 213.026811,668.565847 C330.67809,668.565847 426.053621,763.805065 426.053621,881.288195" id="Fill-18" fill="#0099FF"></path>
                <path d="M213.026924,668.56596 C144.947443,668.56596 84.3280274,700.457477 45.330426,750.094468 C84.3280274,799.730325 144.947443,831.621842 213.026924,831.621842 C281.106405,831.621842 341.725821,799.730325 380.723422,750.094468 C341.725821,700.457477 281.106405,668.56596 213.026924,668.56596" id="Fill-19" fill="#0066B8"></path>
                <path d="M505.209102,416.95571 L505.209102,1093.46717 C733.949619,1093.46717 919.787097,910.55944 923.544945,683.517596 L923.635769,683.517596 L923.635769,0 C692.545178,0 505.209102,186.671544 505.209102,416.95571 Z" id="Illustrator" fill="url(#linearGradient-1)" fill-rule="nonzero"></path>
            </g>
        </g>
    </g>
</svg>