<?xml version="1.0" encoding="UTF-8"?>
<svg width="26px" height="26px" viewBox="0 0 26 26" version="1.1" xmlns="http://www.w3.org/2000/svg" xmlns:xlink="http://www.w3.org/1999/xlink">
    <title>checkbutton-basic-widgets-off</title>
    <g id="Page-1" stroke="none" stroke-width="1" fill="none" fill-rule="evenodd">
        <g id="NOU" transform="translate(-475.000000, -338.000000)" fill="#000000" fill-rule="nonzero">
            <g id="IOS" transform="translate(438.000000, 284.149902)">
                <g id="Elements" transform="translate(0.000000, 53.850098)">
                    <g id="checkbutton-ios-off" transform="translate(37.000000, 0.000000)">
                        <path d="M20,0 C23.3137085,0 26,2.6862915 26,6 L26,20 C26,23.3137085 23.3137085,26 20,26 L6,26 C2.6862915,26 0,23.3137085 0,20 L0,6 C0,2.6862915 2.6862915,0 6,0 L20,0 Z M20,2 L6,2 C3.85780461,2 2.10892112,3.68396847 2.00489531,5.80035966 L2,6 L2,20 C2,22.1421954 3.68396847,23.8910789 5.80035966,23.9951047 L6,24 L20,24 C22.1421954,24 23.8910789,22.3160315 23.9951047,20.1996403 L24,20 L24,6 C24,3.85780461 22.3160315,2.10892112 20.1996403,2.00489531 L20,2 Z"></path>
                    </g>
                </g>
            </g>
        </g>
    </g>
</svg>